<?xml version="1.0" encoding="UTF-8" standalone="no"?>
<svg
   xmlns:dc="http://purl.org/dc/elements/1.1/"
   xmlns:cc="http://creativecommons.org/ns#"
   xmlns:rdf="http://www.w3.org/1999/02/22-rdf-syntax-ns#"
   xmlns:svg="http://www.w3.org/2000/svg"
   xmlns="http://www.w3.org/2000/svg"
   version="1.1"
   id="Calque_1"
   x="0px"
   y="0px"
   viewBox="0 -1 73.8 41"
   style="enable-background:new 0 -1 73.8 41;"
   xml:space="preserve"><metadata
   id="metadata1337"><rdf:RDF><cc:Work
       rdf:about=""><dc:format>image/svg+xml</dc:format><dc:type
         rdf:resource="http://purl.org/dc/dcmitype/StillImage" /><dc:title></dc:title></cc:Work></rdf:RDF></metadata><defs
   id="defs1335" />
<style
   type="text/css"
   id="style1274">
	.st0{fill:#1E1926;}
	.st1{fill:#010887;}
	.st2{fill:#BFBFBF;}
	.st3{fill:#231F20;}
	.st4{fill:none;stroke:#000000;stroke-width:1.5;stroke-miterlimit:10;}
	.st5{stroke:#FFFFFF;stroke-miterlimit:10;}
	.st6{fill:none;stroke:#000000;stroke-miterlimit:10;}
	.st7{fill:#C1FF5C;}
	.st8{fill:url(#SVGID_1_);}
	.st9{fill:url(#SVGID_2_);}
	.st10{fill:url(#SVGID_3_);}
	.st11{fill:url(#SVGID_4_);}
	.st12{fill:#FFFFFF;}
	.st13{fill:#5FDFBD;}
	.st14{fill:url(#SVGID_5_);}
	.st15{fill:url(#SVGID_6_);}
	.st16{fill:#FFE400;}
	.st17{fill:#FFAC01;}
	.st18{fill:#FF4F2B;}
	.st19{fill:#FF5B58;}
	.st20{fill:#7E0953;}
	.st21{fill:#0D081C;}
	.st22{fill:#28B574;}
	.st23{fill:#F5E0C3;}
	.st24{fill:#E8100D;}
	.st25{fill:#ED1C24;}
	.st26{fill:#00A651;}
	.st27{fill:#8326EF;}
	.st28{fill:#00FFB0;}
	.st29{fill:#FF3333;}
	.st30{fill:#0606FE;}
	.st31{fill:#00AEEF;}
	.st32{fill:#FFD205;}
</style>
<g
   id="g1330">
	<rect
   x="0"
   y="17.2"
   class="st30"
   width="2.3"
   height="2.3"
   id="rect1276" />
	<rect
   x="6.9"
   y="17.2"
   class="st30"
   width="67"
   height="2.3"
   id="rect1278" />
	
		<rect
   x="71.6"
   y="37.8"
   transform="matrix(-1 -4.549706e-11 4.549706e-11 -1 145.4138 77.79)"
   class="st32"
   width="2.3"
   height="2.3"
   id="rect1280" />
	
		<rect
   x="0"
   y="37.8"
   transform="matrix(-1 -4.645985e-11 4.645985e-11 -1 66.9965 77.79)"
   class="st32"
   width="66.9"
   height="2.3"
   id="rect1282" />
	<rect
   x="51.1"
   y="10.4"
   width="2.3"
   height="2.3"
   id="rect1284" />
	
	<g
   id="g1318">
		<path
   d="M3.2,0.1H0v12.7h2.3V9.2h1c1.1,0,1.9-0.3,2.5-0.8c0.6-0.5,0.9-1.3,0.9-2.2V3.1c0-0.9-0.3-1.7-0.9-2.2    C5.1,0.4,4.3,0.1,3.2,0.1z M2.2,2.2h1c0.4,0,0.7,0.1,0.9,0.2c0.2,0.2,0.3,0.4,0.3,0.7v3.1c0,0.6-0.2,0.9-1.1,0.9h-1V2.2z"
   id="path1304" />
		<polygon
   points="12.5,5.2 10.6,0.1 8.2,0.1 11.4,8.2 11.4,12.8 13.7,12.8 13.7,8.2 16.9,0.1 14.5,0.1   "
   id="polygon1306" />
		<path
   d="M22.4-0.2c-1.1,0-2,0.3-2.5,0.8C19.3,1.1,19,1.9,19,2.8V10c0,1,0.3,1.7,0.9,2.2c0.6,0.5,1.5,0.8,2.6,0.8    c1.1,0,2-0.3,2.5-0.8c0.6-0.5,0.9-1.3,0.9-2.2V8.5h-2.3V10c0,0.5-0.1,0.9-1.2,0.9s-1.2-0.5-1.2-0.9V2.8c0-0.5,0.1-0.9,1.2-0.9    s1.2,0.5,1.2,0.9V5h2.3V2.8c0-1-0.3-1.7-0.9-2.2C24.4,0.1,23.5-0.2,22.4-0.2z"
   id="path1308" />
		<path
   d="M32.7-0.2c-1.1,0-2,0.3-2.6,0.8c-0.6,0.5-0.9,1.3-0.9,2.2V10c0,1,0.3,1.7,1,2.2c0.6,0.5,1.5,0.8,2.6,0.8    c1.1,0,2-0.3,2.6-0.8c0.6-0.5,0.9-1.3,0.9-2.2V2.8c0-1-0.3-1.7-1-2.2C34.7,0.1,33.8-0.2,32.7-0.2z M34,2.8V10    c0,0.5-0.2,0.9-1.3,0.9c-1.1,0-1.3-0.5-1.3-0.9V2.8c0-0.5,0.2-0.9,1.3-0.9C33.8,1.9,34,2.3,34,2.8z"
   id="path1310" />
		<polygon
   points="45.1,7.2 42,0.1 39.9,0.1 39.9,12.8 42.2,12.8 42.2,5.7 45.3,12.8 47.4,12.8 47.4,0.1 45.1,0.1   "
   id="polygon1312" />
		<polygon
   points="57.3,12.8 59.6,12.8 59.6,7.4 62.6,7.4 62.6,5.3 59.6,5.3 59.6,2.2 63.3,2.2 63.3,0.1 57.3,0.1   "
   id="polygon1314" />
		<path
   d="M71.4,8.2c0.9-0.5,1.4-1.4,1.4-2.6V3.1c0-0.9-0.3-1.7-0.9-2.2c-0.6-0.5-1.4-0.8-2.5-0.8h-3.2v12.7h2.3V8.6h0.7l2.1,4.1    h2.5L71.4,8.2z M68.4,2.2h1c0.4,0,0.7,0.1,0.9,0.2c0.2,0.2,0.3,0.4,0.3,0.7v2.5c0,0.6-0.2,0.9-1.1,0.9h-1V2.2z"
   id="path1316" />
	</g>
	
<text
   xml:space="preserve"
   style="font-style:normal;font-weight:normal;font-size:15.3591px;line-height:1.25;font-family:sans-serif;fill:#000000;fill-opacity:1;stroke:none;stroke-width:0.383977"
   x="8.8803015"
   y="33.754902"
   id="text1341"><tspan
     id="tspan1339"
     x="8.8803015"
     y="33.754902"
     style="stroke-width:0.383977">LOREM</tspan></text></g>
</svg>
